<?xml version="1.0" standalone="no"?>
<!DOCTYPE svg PUBLIC "-//W3C//DTD SVG 20010904//EN"
 "http://www.w3.org/TR/2001/REC-SVG-20010904/DTD/svg10.dtd">
<svg version="1.0" xmlns="http://www.w3.org/2000/svg"
 width="250.000000pt" height="250.000000pt" viewBox="0 0 250.000000 250.000000"
 preserveAspectRatio="xMidYMid meet">
<metadata>
Created by potrace 1.14, written by Peter Selinger 2001-2017
</metadata>
<g transform="translate(0.000000,250.000000) scale(0.100000,-0.100000)"
fill="#000000" stroke="none">
<path d="M1125 2240 c-163 -29 -274 -72 -400 -155 -128 -84 -231 -207 -296
-353 -130 -287 -125 -739 10 -1027 151 -323 444 -485 875 -485 212 0 532 48
701 105 l40 13 3 536 2 536 -430 0 -430 0 0 -205 0 -205 175 0 175 0 0 -159
c0 -185 16 -166 -145 -177 -117 -7 -191 4 -272 42 -155 74 -243 260 -243 519
0 196 52 362 144 457 97 102 184 133 366 132 139 0 235 -18 363 -67 44 -16 82
-26 87 -21 5 5 24 50 44 99 19 50 55 139 80 198 l45 109 -52 22 c-29 13 -77
29 -107 36 -30 7 -62 16 -70 20 -9 5 -78 18 -154 29 -171 26 -367 26 -511 1z"/>
</g>
</svg>
